<svg id="Layer_1" enable-background="new 0 0 510 510" height="512" viewBox="0 0 510 510" width="512" xmlns="http://www.w3.org/2000/svg"><g><path d="m60 75h-60v390h188.787l15 15h51.213l10-30.333-10-29.667z" fill="#f77231"/><path d="m60 30v375h165l15 15h15l10-199.786-10-190.214z" fill="#f3f5f9"/><path d="m450 75-195 345v60h51.213l15-15h188.787v-390z" fill="#df4a2c"/><path d="m255 30v390h15l15-15h165v-375z" fill="#e1e6f0"/><path d="m120 210h90v135h-90z" fill="#61729b"/><g id="XMLID_755_"><g><path d="m120 150h90v30h-90z" fill="#27e7f0"/></g></g><g id="XMLID_749_"><g><path d="m120 90h90v30h-90z" fill="#61729b"/></g></g><g id="XMLID_743_"><g><path d="m300 315h90v30h-90z" fill="#61729b"/></g></g><g id="XMLID_742_"><g><path d="m300 255h90v30h-90z" fill="#3ac0f1"/></g></g><g id="XMLID_741_"><g><path d="m330 150h30v75h-30z" fill="#61729b"/></g></g><g id="XMLID_733_"><g><path d="m330 90h30v30h-30z" fill="#3ac0f1"/></g></g></g></svg>